<svg width="8" height="13" viewBox="0 0 8 13" fill="none" xmlns="http://www.w3.org/2000/svg">
<g clip-path="url(#clip0_67_2384)">
<path fill-rule="evenodd" clip-rule="evenodd" d="M0.195255 6.97143C0.140526 6.9168 0.0971585 6.85469 0.0653337 6.78821C0.0215909 6.69706 -3.52037e-05 6.59841 4.30139e-08 6.50001C6.1487e-05 6.32846 0.0659504 6.15766 0.195255 6.02859C0.206948 6.01687 0.218984 6.00568 0.231332 5.99501L6.22377 0.668401C6.49895 0.423789 6.92031 0.448576 7.16498 0.723765C7.40958 0.998953 7.38478 1.42033 7.10958 1.66495L1.67014 6.50001L7.10958 11.3351C7.38478 11.5797 7.40958 12.0011 7.16498 12.2763C6.92031 12.5515 6.49895 12.5763 6.22377 12.3316L0.231332 7.00501C0.218984 6.99433 0.206948 6.98314 0.195255 6.97143Z" fill="#878D28"/>
</g>
<defs>
<clipPath id="clip0_67_2384">
<rect width="7.33333" height="12" fill="white" transform="translate(0 0.5)"/>
</clipPath>
</defs>
</svg>
