<svg width="24" height="25" viewBox="0 0 24 25" fill="none" xmlns="http://www.w3.org/2000/svg">
<path d="M12 13.5C13.3807 13.5 14.5 12.3807 14.5 11C14.5 9.61929 13.3807 8.5 12 8.5C10.6193 8.5 9.5 9.61929 9.5 11C9.5 12.3807 10.6193 13.5 12 13.5Z" stroke="#454444" stroke-linecap="round" stroke-linejoin="round"/>
<path d="M7.72949 17.3999C8.17573 16.6674 8.8029 16.062 9.5507 15.642C10.2985 15.2219 11.1418 15.0012 11.9995 15.0012C12.8572 15.0012 13.7005 15.2219 14.4483 15.642C15.1961 16.062 15.8232 16.6674 16.2695 17.3999" stroke="#454444" stroke-linecap="round" stroke-linejoin="round"/>
<path d="M12 19C15.5899 19 18.5 16.0899 18.5 12.5C18.5 8.91015 15.5899 6 12 6C8.41015 6 5.5 8.91015 5.5 12.5C5.5 16.0899 8.41015 19 12 19Z" stroke="#454444" stroke-linecap="round" stroke-linejoin="round"/>
</svg>
