<svg width="24" height="24" viewBox="0 0 24 24" fill="none" xmlns="http://www.w3.org/2000/svg">
<path d="M20.0326 10.7747C20.2546 11.0515 20.3776 11.4112 20.3776 11.7842C20.3776 12.1571 20.2546 12.5168 20.0326 12.7937C18.6263 14.4963 15.4254 17.811 11.6888 17.811C7.9522 17.811 4.75131 14.4963 3.34505 12.7937C3.12295 12.5168 3 12.1571 3 11.7842C3 11.4112 3.12295 11.0515 3.34505 10.7747C4.75131 9.0721 7.9522 5.75732 11.6888 5.75732C15.4254 5.75732 18.6263 9.0721 20.0326 10.7747Z" stroke="#454444" stroke-linecap="round" stroke-linejoin="round"/>
<path d="M12.0001 14.7744C13.5324 14.7744 14.7746 13.5322 14.7746 11.9999C14.7746 10.4675 13.5324 9.22534 12.0001 9.22534C10.4678 9.22534 9.22559 10.4675 9.22559 11.9999C9.22559 13.5322 10.4678 14.7744 12.0001 14.7744Z" stroke="#454444" stroke-linecap="round" stroke-linejoin="round"/>
</svg>
