<svg width="24" height="24" viewBox="0 0 24 24" fill="none" xmlns="http://www.w3.org/2000/svg">
<path d="M16 10.5H8C7.44772 10.5 7 10.9477 7 11.5V17.5C7 18.0523 7.44772 18.5 8 18.5H16C16.5523 18.5 17 18.0523 17 17.5V11.5C17 10.9477 16.5523 10.5 16 10.5Z" stroke="#454444" stroke-linecap="round" stroke-linejoin="round"/>
<path d="M15.5 10.5V9C15.5 8.07174 15.1313 7.1815 14.4749 6.52513C13.8185 5.86875 12.9283 5.5 12 5.5C11.0717 5.5 10.1815 5.86875 9.52513 6.52513C8.86875 7.1815 8.5 8.07174 8.5 9V10.5" stroke="#454444" stroke-linecap="round" stroke-linejoin="round"/>
<path d="M12 15C12.2761 15 12.5 14.7761 12.5 14.5C12.5 14.2239 12.2761 14 12 14C11.7239 14 11.5 14.2239 11.5 14.5C11.5 14.7761 11.7239 15 12 15Z" stroke="#454444" stroke-linecap="round" stroke-linejoin="round"/>
</svg>
